# xmcd CD database file
#
# Track frame offsets:
#	150
#	17700
#	29069
#	40740
#	52639
#	65946
#	81378
#	95997
#	109583
#	122363
#	134415
#	145890
#	160944
#	174140
#	182884
#	193350
#	205314
#	218749
#	232912
#	245523
#
# Disc length: 3435 seconds
#
# Revision: 0
# Processed by: cddbd v1.5.2PL0 Copyright (c) Steve Scherf et al.
# Submitted via: CDex 1.70beta2
#
DISCID=220d6914
DTITLE=Pride,Charley - Did You Think To Pray -  A Sunshiny Day With Charley Pride
DYEAR=2016
DGENRE=Country
TTITLE0=Did You Think To Pray
TTITLE1=I'll Fly Away
TTITLE2=Time Out For Jesus
TTITLE3=Angel Band
TTITLE4=Jesus, Don't Give Up On Me
TTITLE5=Let Me Live
TTITLE6=Whispering Hope
TTITLE7=This Highway Leads To Glory
TTITLE8=The Church In The Wildwood
TTITLE9=Lord, Build Me A Cabin In Glory
TTITLE10=Sunshiny Day
TTITLE11=When The Trains Come In
TTITLE12=You're Wanting Me To Stop Loving You
TTITLE13=Back To The Country Roads
TTITLE14=Put Back My Ring On Your Hand
TTITLE15=It's Gonna Take A Little Bit Longer
TTITLE16=Seven Years With A Wonderful Woman
TTITLE17=She's Helping Me Get Over You
TTITLE18=One More Year
TTITLE19=Nothin' Left But Leavin'
EXTD=YEAR: 2016
EXTT0=
EXTT1=
EXTT2=
EXTT3=
EXTT4=
EXTT5=
EXTT6=
EXTT7=
EXTT8=
EXTT9=
EXTT10=
EXTT11=
EXTT12=
EXTT13=
EXTT14=
EXTT15=
EXTT16=
EXTT17=
EXTT18=
EXTT19=
PLAYORDER=
